<svg width="78" height="52" viewBox="0 0 78 52" fill="none" xmlns="http://www.w3.org/2000/svg">
<path d="M0.744 40V4.72H6.168V35.2H16.296V40H0.744ZM19.6358 40V17.968H25.0118V40H19.6358ZM22.3238 13.84C21.3318 13.84 20.4998 13.504 19.8278 12.832C19.1878 12.16 18.8678 11.328 18.8678 10.336C18.8678 9.44 19.1878 8.672 19.8278 8.032C20.4998 7.392 21.3318 7.072 22.3238 7.072C23.3158 7.072 24.1318 7.392 24.7718 8.032C25.4438 8.672 25.7798 9.44 25.7798 10.336C25.7798 11.328 25.4438 12.16 24.7718 12.832C24.1318 13.504 23.3158 13.84 22.3238 13.84ZM29.094 51.712C27.91 51.712 26.63 51.536 25.254 51.184L26.358 46.528C26.934 46.752 27.43 46.928 27.846 47.056C28.262 47.184 28.71 47.248 29.19 47.248C29.83 47.248 30.358 47.136 30.774 46.912C31.222 46.72 31.558 46.304 31.782 45.664C32.038 45.056 32.166 44.128 32.166 42.88V17.968H37.35V43.12C37.35 45.936 36.614 48.064 35.142 49.504C33.702 50.976 31.686 51.712 29.094 51.712ZM34.662 13.84C33.67 13.84 32.838 13.504 32.166 12.832C31.526 12.16 31.206 11.328 31.206 10.336C31.206 9.44 31.526 8.672 32.166 8.032C32.838 7.392 33.67 7.072 34.662 7.072C35.654 7.072 36.47 7.392 37.11 8.032C37.782 8.672 38.118 9.44 38.118 10.336C38.118 11.328 37.782 12.16 37.11 12.832C36.47 13.504 35.654 13.84 34.662 13.84ZM58.6523 40L40.2922 0.309999H47.1503L59.0303 27.58L70.9643 0.309999H77.7683L59.4623 40H58.6523Z" fill="#2EE8AD" fill-opacity="0.713726"/>
</svg>
