<svg width="106" height="69" viewBox="0 0 106 69" fill="none" xmlns="http://www.w3.org/2000/svg">
<path d="M55.176 35.944H55.608L54.552 37.144C52.888 39.032 50.952 40.744 48.744 42.28C46.568 43.816 44.216 45.144 41.688 46.264C39.16 47.384 36.552 48.248 33.864 48.856C31.208 49.464 28.584 49.768 25.992 49.768C22.344 49.768 19 49.208 15.96 48.088C12.952 46.968 10.312 45.384 8.04 43.336C5.8 41.32 4.072 38.936 2.856 36.184C1.608 33.432 0.984 30.408 0.984 27.112C0.984 23.336 1.736 19.848 3.24 16.648C4.744 13.416 6.856 10.6 9.576 8.2C12.296 5.8 15.464 3.928 19.08 2.584C22.728 1.24 26.68 0.567997 30.936 0.567997C33.176 0.567997 35.368 0.775997 37.512 1.192C39.656 1.576 41.64 2.12 43.464 2.824C45.32 3.528 46.92 4.344 48.264 5.272C49.64 6.2 50.632 7.192 51.24 8.248L50.952 8.44C50.344 7.384 49.368 6.408 48.024 5.512C46.712 4.616 45.144 3.832 43.32 3.16C41.496 2.456 39.512 1.912 37.368 1.528C35.256 1.144 33.112 0.951998 30.936 0.951998C26.744 0.951998 22.84 1.608 19.224 2.92C15.64 4.232 12.504 6.072 9.816 8.44C7.16 10.808 5.08 13.576 3.576 16.744C2.104 19.912 1.368 23.368 1.368 27.112C1.368 30.312 1.976 33.288 3.192 36.04C4.408 38.76 6.12 41.112 8.328 43.096C10.536 45.08 13.144 46.616 16.152 47.704C19.16 48.824 22.44 49.384 25.992 49.384C28.552 49.384 31.144 49.096 33.768 48.52C36.392 47.944 38.952 47.112 41.448 46.024C43.944 44.936 46.264 43.64 48.408 42.136C50.584 40.632 52.504 38.968 54.168 37.144L55.176 35.944ZM22.008 44.632C23.448 44.632 25.08 44.36 26.904 43.816C28.728 43.272 30.616 42.456 32.568 41.368C34.52 40.28 36.344 38.936 38.04 37.336C39.448 36.088 40.952 34.648 42.552 33.016C44.184 31.384 45.832 29.672 47.496 27.88C49.192 26.056 50.856 24.248 52.488 22.456C54.152 20.632 55.72 18.92 57.192 17.32C58.696 15.72 60.072 14.328 61.32 13.144C62.92 11.544 64.312 10.392 65.496 9.688C66.712 8.952 67.688 8.584 68.424 8.584C69.352 8.584 69.816 9.144 69.816 10.264C69.816 11.672 69.368 13.224 68.472 14.92C67.576 16.616 66.328 18.376 64.728 20.2C63.128 21.992 61.272 23.768 59.16 25.528C57.048 27.256 54.76 28.904 52.296 30.472C49.832 32.04 47.288 33.432 44.664 34.648C42.072 35.832 39.464 36.776 36.84 37.48C34.248 38.152 31.752 38.488 29.352 38.488C25.32 38.488 21.976 37.88 19.32 36.664C16.696 35.448 14.728 33.816 13.416 31.768C12.136 29.72 11.496 27.448 11.496 24.952C11.496 22.776 11.992 20.76 12.984 18.904C14.008 17.048 15.432 15.432 17.256 14.056C19.112 12.68 21.256 11.608 23.688 10.84C26.152 10.072 28.824 9.688 31.704 9.688C34.808 9.688 37.288 10.168 39.144 11.128C41.032 12.056 42.392 13.256 43.224 14.728C44.088 16.168 44.52 17.688 44.52 19.288C44.52 20.76 44.12 22.136 43.32 23.416C42.552 24.696 41.48 25.832 40.104 26.824C38.728 27.784 37.128 28.536 35.304 29.08C33.512 29.624 31.592 29.896 29.544 29.896C27.048 29.896 25.032 29.432 23.496 28.504C21.96 27.544 21.192 26.296 21.192 24.76C21.192 23.384 21.8 22.152 23.016 21.064C24.264 19.976 25.944 19.112 28.056 18.472C30.168 17.8 32.536 17.464 35.16 17.464C37.464 17.464 39.848 17.72 42.312 18.232C44.808 18.712 47.224 19.4 49.56 20.296C51.928 21.192 54.072 22.216 55.992 23.368C57.912 24.52 59.448 25.752 60.6 27.064L60.36 27.304C59.208 26.024 57.688 24.824 55.8 23.704C53.912 22.552 51.8 21.544 49.464 20.68C47.16 19.784 44.776 19.096 42.312 18.616C39.848 18.104 37.464 17.848 35.16 17.848C32.632 17.848 30.328 18.152 28.248 18.76C26.2 19.368 24.568 20.2 23.352 21.256C22.168 22.28 21.576 23.448 21.576 24.76C21.576 26.168 22.296 27.32 23.736 28.216C25.208 29.08 27.144 29.512 29.544 29.512C32.264 29.512 34.728 29.064 36.936 28.168C39.144 27.24 40.888 26.008 42.168 24.472C43.48 22.904 44.136 21.176 44.136 19.288C44.136 16.44 43.016 14.2 40.776 12.568C38.568 10.904 35.544 10.072 31.704 10.072C28.856 10.072 26.232 10.44 23.832 11.176C21.432 11.912 19.336 12.968 17.544 14.344C15.752 15.688 14.36 17.272 13.368 19.096C12.376 20.888 11.88 22.84 11.88 24.952C11.88 27.672 12.584 30.024 13.992 32.008C15.4 33.96 17.416 35.464 20.04 36.52C22.664 37.576 25.768 38.104 29.352 38.104C32.136 38.104 35.032 37.656 38.04 36.76C41.08 35.832 44.104 34.6 47.112 33.064C50.12 31.496 52.952 29.752 55.608 27.832C58.296 25.88 60.68 23.864 62.76 21.784C64.84 19.704 66.472 17.672 67.656 15.688C68.84 13.672 69.432 11.864 69.432 10.264C69.432 9.4 69.096 8.968 68.424 8.968C67.784 8.968 66.904 9.336 65.784 10.072C64.664 10.776 63.288 11.896 61.656 13.432C60.024 15.128 58.376 17.112 56.712 19.384C55.048 21.624 53.336 23.976 51.576 26.44C49.816 28.872 47.976 31.256 46.056 33.592C44.136 35.896 42.104 37.96 39.96 39.784C37.848 41.576 35.512 43.016 32.952 44.104C30.392 45.192 27.832 45.736 25.272 45.736C23.288 45.736 21.752 45.592 20.664 45.304C19.576 45.048 18.808 44.696 18.36 44.248C17.912 43.8 17.688 43.32 17.688 42.808C17.688 42.296 17.96 41.848 18.504 41.464C19.048 41.048 19.8 40.84 20.76 40.84C22.968 40.84 25.096 41.224 27.144 41.992C29.192 42.728 31.192 43.672 33.144 44.824C35.128 46.008 37.112 47.256 39.096 48.568C41.112 49.88 43.16 51.112 45.24 52.264C47.352 53.448 49.544 54.408 51.816 55.144C54.088 55.912 56.472 56.296 58.968 56.296C61.624 56.296 63.688 55.864 65.16 55C66.664 54.168 67.416 52.984 67.416 51.448C67.416 50.648 67.128 49.816 66.552 48.952L66.84 48.76C67.544 49.848 67.896 50.84 67.896 51.736C67.896 53.496 67 54.904 65.208 55.96C63.448 57.048 61.064 57.592 58.056 57.592C56.552 57.592 55.096 57.432 53.688 57.112C52.28 56.824 50.776 56.312 49.176 55.576C47.608 54.84 45.816 53.832 43.8 52.552C41.784 51.272 39.416 49.64 36.696 47.656C33.848 45.576 31.016 43.976 28.2 42.856C25.416 41.736 22.952 41.192 20.808 41.224C20.008 41.224 19.352 41.368 18.84 41.656C18.328 41.912 18.072 42.264 18.072 42.712C18.072 43.288 18.424 43.752 19.128 44.104C19.864 44.456 20.824 44.632 22.008 44.632ZM52.9639 43.384C52.6439 43.384 52.3719 43.256 52.1479 43C51.8919 42.776 51.7639 42.488 51.7639 42.136C51.7639 41.08 52.4359 39.624 53.7799 37.768C55.0919 35.912 57.2199 33.448 60.1639 30.376H63.4279C63.0439 30.568 62.5959 30.872 62.0839 31.288C61.6039 31.672 61.0279 32.168 60.3559 32.776C58.4039 34.664 56.8359 36.232 55.6519 37.48C54.4679 38.728 53.6199 39.736 53.1079 40.504C52.5959 41.24 52.3399 41.832 52.3399 42.28C52.3399 42.824 52.5639 43.096 53.0119 43.096C53.5239 43.096 54.2439 42.808 55.1719 42.232C56.0999 41.624 57.1239 40.824 58.2439 39.832C59.3639 38.808 60.4519 37.704 61.5079 36.52L61.9879 35.944H62.4199L62.0359 36.376C60.8519 37.72 59.6679 38.936 58.4839 40.024C57.2999 41.08 56.2279 41.912 55.2679 42.52C54.3079 43.096 53.5399 43.384 52.9639 43.384ZM70.7719 19.576C71.0919 19.576 71.2519 19.688 71.2519 19.912C71.2519 20.296 71.0119 20.76 70.5319 21.304C70.0839 21.816 69.5399 22.264 68.8999 22.648C68.2919 23.032 67.7639 23.224 67.3159 23.224C67.0279 23.224 66.8839 23.112 66.8839 22.888C66.8839 22.536 67.1239 22.104 67.6039 21.592C68.0839 21.08 68.6279 20.616 69.2359 20.2C69.8759 19.784 70.3879 19.576 70.7719 19.576ZM68.6888 36.376C67.3128 37.944 65.6808 39.592 63.7928 41.32C61.9047 43.016 59.6967 44.76 57.1687 46.552C54.6087 48.376 51.6167 50.248 48.1927 52.168C45.6967 53.608 43.3127 55.096 41.0407 56.632C38.7687 58.168 36.7527 59.64 34.9927 61.048C33.2327 62.488 31.8407 63.752 30.8167 64.84C29.7927 65.96 29.2807 66.792 29.2807 67.336C29.2807 67.72 29.4887 67.912 29.9047 67.912C30.9607 67.912 32.4007 67.352 34.2247 66.232C36.0167 65.144 38.0487 63.624 40.3207 61.672C42.5607 59.72 44.8807 57.432 47.2807 54.808C49.6487 52.184 51.9687 49.336 54.2407 46.264C55.5207 44.504 56.8807 42.648 58.3207 40.696C59.7607 38.744 61.2007 36.856 62.6408 35.032C64.1128 33.208 65.4888 31.656 66.7688 30.376H70.0328C68.3368 31.496 66.6088 33.08 64.8488 35.128C63.0888 37.144 61.2647 39.416 59.3767 41.944C57.4887 44.44 55.5367 47 53.5207 49.624C51.4727 52.248 49.3287 54.744 47.0887 57.112C43.7287 60.696 40.5767 63.448 37.6327 65.368C34.6567 67.32 32.1127 68.296 30.0007 68.296C29.1367 68.296 28.7047 67.992 28.7047 67.384C28.7047 66.776 29.2487 65.88 30.3367 64.696C31.4247 63.512 32.8967 62.168 34.7527 60.664C36.5767 59.192 38.6407 57.688 40.9447 56.152C43.2167 54.616 45.5527 53.192 47.9527 51.88C50.8327 50.312 53.5527 48.632 56.1127 46.84C58.6407 45.08 60.9287 43.304 62.9768 41.512C65.0568 39.72 66.7848 38.056 68.1608 36.52L68.6408 35.944H69.0728L68.6888 36.376ZM77.4728 19.576C77.7928 19.576 77.9528 19.688 77.9528 19.912C77.9528 20.296 77.7128 20.76 77.2328 21.304C76.7848 21.816 76.2408 22.264 75.6008 22.648C74.9928 23.032 74.4648 23.224 74.0168 23.224C73.7288 23.224 73.5848 23.112 73.5848 22.888C73.5848 22.536 73.8248 22.104 74.3047 21.592C74.7848 21.08 75.3288 20.616 75.9368 20.2C76.5768 19.784 77.0888 19.576 77.4728 19.576ZM86.121 43L67.761 3.31H74.619L86.499 30.58L98.433 3.31H105.237L86.931 43H86.121Z" fill="#2EE8AD" fill-opacity="0.713726"/>
</svg>
